<svg xmlns="http://www.w3.org/2000/svg" viewBox="0 0 268.3 268.29"><defs><style>.cls-1{fill:#e88f00;}.cls-2{fill:#fc0;}.cls-3{fill:#ffd41d;}.cls-4{fill:#e8bd0a;}</style></defs><title>Outer Ring_1</title><g id="Layer_2" data-name="Layer 2"><g id="Layer_1-2" data-name="Layer 1"><path class="cls-1" d="M134.15,0A134.15,134.15,0,1,0,268.3,134.14,134.15,134.15,0,0,0,134.15,0ZM54.5,226A121.34,121.34,0,0,1,41.81,54.93h0A121.32,121.32,0,1,1,54.5,226Z"/><path class="cls-2" d="M219.2,35.49A130.26,130.26,0,0,0,35.49,49.09h0A130.26,130.26,0,1,0,219.2,35.49ZM226,213.36A121.32,121.32,0,0,1,42.25,54.93h0A121.32,121.32,0,1,1,226,213.36Z"/><path class="cls-3" d="M215,40.3a123.86,123.86,0,1,1-174.68,13h0A123.86,123.86,0,0,1,215,40.3ZM56,224.79A119.71,119.71,0,1,0,43.43,56,119.72,119.72,0,0,0,56,224.79Z"/><path class="cls-4" d="M213.57,42a121.64,121.64,0,1,0,12.72,171.63A121.64,121.64,0,0,0,213.57,42Zm31,128.62a115.93,115.93,0,0,1-101.82,79.53c-2.93.22-5.83.32-8.72.32A116.25,116.25,0,1,1,210,46.09h0A116,116,0,0,1,244.54,170.6Z"/></g></g></svg>