<svg xmlns="http://www.w3.org/2000/svg" viewBox="0 0 139.47 139.47"><defs><style>.cls-1{fill:#1d2840;}.cls-2{fill:#283753;}.cls-3{fill:#fc0;}.cls-4{fill:#fff;}</style></defs><title>Center Rotation</title><g id="Layer_2" data-name="Layer 2"><g id="Layer_1-2" data-name="Layer 1"><circle id="Oval" class="cls-1" cx="69.72" cy="69.74" r="68.12"/><path id="Shape-3" class="cls-2" d="M33.18,10.36a69.73,69.73,0,1,1-22.82,95.93h0A69.72,69.72,0,0,1,33.18,10.36Zm71,115.31A65.67,65.67,0,1,0,13.8,104.16a65.67,65.67,0,0,0,90.35,21.51Z"/><path id="Shape-4" class="cls-2" d="M39,19.84a58.57,58.57,0,1,1-19.19,80.62A58.57,58.57,0,0,1,39,19.84ZM97.93,115.6A53.86,53.86,0,1,0,23.82,98v0A53.89,53.89,0,0,0,97.93,115.6Z"/><polygon id="Path" class="cls-3" points="95.09 107.36 92.01 109.25 66 72.05 73.58 67.38 95.09 107.36"/><polygon id="Path-2" class="cls-3" points="32.1 95.06 30.19 91.97 67.4 65.97 72.07 73.55 32.1 95.06"/><polygon id="Path-3" class="cls-3" points="107.89 44.15 109.79 47.24 72.58 73.24 67.91 65.66 107.89 44.15"/><polygon id="Path-4" class="cls-3" points="44.51 32.07 47.58 30.18 73.58 67.38 66 72.05 44.51 32.07"/><circle id="Oval-2" class="cls-3" cx="92.83" cy="107.28" r="4.33"/><circle id="Oval-3" class="cls-3" cx="46.74" cy="32.39" r="4.33"/><circle id="Oval-4" class="cls-3" cx="32.32" cy="92.97" r="4.33"/><circle id="Oval-5" class="cls-3" cx="107.14" cy="46.77" r="4.33"/><g id="Oval-6"><path class="cls-4" d="M66.15,64.25a6.57,6.57,0,0,1,9.1,1.9,6.47,6.47,0,0,1,.92,4.94,6.57,6.57,0,1,1-10-6.84Z"/><path class="cls-2" d="M59.39,67.6a10.58,10.58,0,1,0,20.74.22A10,10,0,0,0,78.59,64a10.58,10.58,0,0,0-19.2,3.61Zm15.86-1.42a6.47,6.47,0,0,1,.92,4.94,6.57,6.57,0,1,1-10-6.84h0a6.57,6.57,0,0,1,9.1,1.87Z"/></g></g></g></svg>